<svg xmlns="http://www.w3.org/2000/svg" xmlns:xlink="http://www.w3.org/1999/xlink" width="180" height="180" viewBox="0 0 1798.83 1799.76"><defs><style>.cls-1{fill:none;}.cls-2{fill:#fff;}.cls-3,.cls-4{fill:#919396;}.cls-4,.cls-5,.cls-6,.cls-7,.cls-8,.cls-9{fill-rule:evenodd;}.cls-5{fill:#eb3436;}.cls-6{fill:#cccbcb;}.cls-7{fill:#fcd900;}.cls-12,.cls-8{fill:#0259a0;}.cls-9{fill:#fffbf6;}.cls-10{clip-path:url(#clip-path);}.cls-11{fill:url(#linear-gradient);}.cls-13{fill:#27397d;}.cls-14{clip-path:url(#clip-path-2);}.cls-15{fill:url(#linear-gradient-2);}.cls-16{clip-path:url(#clip-path-3);}.cls-17{fill:url(#linear-gradient-3);}.cls-18{fill:#f8f3f4;}</style><clipPath id="clip-path"><path class="cls-1" d="M472.09,1099.44a1.58,1.58,0,0,0-.15,2.14l69.58,74c-7.72,6-51.43,37.68-112.67,42.09a1.57,1.57,0,0,0-.56,3c52.14,25.08,207,41,208.57,41.12a1.64,1.64,0,0,0,1.36-.54,1.57,1.57,0,0,0,.32-1.41l-26.4-101c3.47-1.55,18.91-7.87,87.46-33.45l0,0,.15,0a1.51,1.51,0,0,0,.85-2,1.61,1.61,0,0,0-1.8-1h0l-.24.06h0c-28.63,10.68-57.38,16.09-85.45,16.09-85.25,0-138.32-38.44-138.84-38.94a1.6,1.6,0,0,0-1.1-.44,1.57,1.57,0,0,0-1.06.42"></path></clipPath><linearGradient id="linear-gradient" x1="582.83" y1="1332.45" x2="586.9" y2="1332.45" gradientTransform="matrix(70.89, 0, 0, -70.89, -40896.34, 95641.3)" gradientUnits="userSpaceOnUse"><stop offset="0" stop-color="#233e84"></stop><stop offset="0.02" stop-color="#233e84"></stop><stop offset="0.19" stop-color="#1072b2"></stop><stop offset="0.3" stop-color="#233e84"></stop><stop offset="0.52" stop-color="#1072b2"></stop><stop offset="0.73" stop-color="#233e84"></stop><stop offset="0.88" stop-color="#1072b2"></stop><stop offset="1" stop-color="#233e84"></stop></linearGradient><clipPath id="clip-path-2"><path class="cls-1" d="M1296,1125.7l-18.59,98.5a1.64,1.64,0,0,0,.26,1.18,1.56,1.56,0,0,0,1,.66c.2,0,.47.14.51,0-.19,1.1-4,7.17-57,26.08a1.57,1.57,0,0,0,1,3,272.48,272.48,0,0,1,74.33-10.46c96.47,0,162.2,53.19,162.85,53.72a1.56,1.56,0,0,0,2.11-.1,1.58,1.58,0,0,0,.11-2.1L1393,1210.62c7.73-6,51.48-37.68,112.67-42.09a1.57,1.57,0,0,0,.57-3c-52.16-25.09-207-41-208.59-41.12h-.15a1.56,1.56,0,0,0-1.54,1.28"></path></clipPath><linearGradient id="linear-gradient-2" x1="592.05" y1="1331" x2="596.13" y2="1331" gradientTransform="matrix(70.19, 0, 0, -70.19, -40335.2, 94634.28)" xlink:href="#linear-gradient"></linearGradient><clipPath id="clip-path-3"><path class="cls-1" d="M1307.87,1088.18c-2,.37-206.53,38-398.28,75.76-54.5,10.73-107,16.17-156,16.17-91,0-139.45-19-139.93-19.2a1.58,1.58,0,0,0-2.12,1.86l34.64,131.75a1.56,1.56,0,0,0,1.72,1.16c1.52-.19,153.82-19.6,317.1-59.8,53.76-13.23,111.86-19.94,172.69-19.94,84,0,144.08,13.09,144.68,13.23a1.6,1.6,0,0,0,1.9-1.26l25.4-137.91a1.58,1.58,0,0,0-1.56-1.85l-.29,0"></path></clipPath><linearGradient id="linear-gradient-3" x1="587.47" y1="1333.16" x2="591.57" y2="1333.16" gradientTransform="matrix(170.36, 0, 0, -170.36, -99469.84, 228309.16)" xlink:href="#linear-gradient"></linearGradient></defs><g id="Layer_2" data-name="Layer 2"><g id="Layer_1-2" data-name="Layer 1"><circle class="cls-2" cx="899.41" cy="899.88" r="899.41"></circle><rect class="cls-3" x="496.79" y="1300.05" width="30.39" height="88.53"></rect><rect class="cls-3" x="591.28" y="1300.05" width="30.4" height="88.53"></rect><rect class="cls-3" x="685.77" y="1300.05" width="30.4" height="88.53"></rect><rect class="cls-3" x="780.29" y="1300.05" width="30.41" height="88.53"></rect><rect class="cls-3" x="874.78" y="1300.05" width="30.4" height="88.53"></rect><rect class="cls-3" x="969.29" y="1300.05" width="30.4" height="88.53"></rect><rect class="cls-3" x="1063.8" y="1300.05" width="30.39" height="88.53"></rect><rect class="cls-3" x="1158.29" y="1300.05" width="30.4" height="88.53"></rect><rect class="cls-3" x="1252.81" y="1300.05" width="30.38" height="88.53"></rect><rect class="cls-3" x="1347.28" y="1300.05" width="30.39" height="88.53"></rect><path class="cls-3" d="M1341.34,540.29H464.62l4.21-5.54C470.2,533,609.55,354.4,903,354.4S1335.74,533,1337.11,534.75Zm-862.43-6.87H1327C1300.92,503.36,1163.5,361.27,903,361.27S505.05,503.36,478.91,533.42"></path><path class="cls-3" d="M1454.46,585.88H331.26V533.42h1123.2ZM338.14,579H1447.6V540.29H338.14Z"></path><path class="cls-3" d="M1438.9,616.28H354.08V579H1438.9Zm-1078-6.87H1432V585.88H360.94Z"></path><path class="cls-3" d="M1419.43,691.43H393.75v-82H1419.43ZM400.62,684.56H1412.56V616.28H400.62Z"></path><path class="cls-3" d="M1445.32,718.44H334.63V684.56H1445.32ZM341.5,711.56h1097V691.43H341.5Z"></path><rect class="cls-3" x="1074.61" y="514.29" width="142.48" height="6.89" transform="translate(-96.76 325.5) rotate(-15.52)"></rect><path class="cls-3" d="M1212,501C1211,500,1105,395.39,903,361.33,700.75,395.42,595,500,593.91,501L589,496.2c1.06-1.08,108.63-107.4,313.35-141.76l.59-.08.56.08c204.75,34.36,312.32,140.68,313.38,141.76Z"></path><rect class="cls-3" x="656.66" y="446.5" width="6.89" height="142.47" transform="translate(-15.73 1014.76) rotate(-74.44)"></rect><rect class="cls-3" x="971.28" y="503.81" width="133.1" height="6.88" transform="translate(-117.31 513.58) rotate(-26.36)"></rect><path class="cls-3" d="M1094.28,479c-.24-.56-26.59-57.17-191.31-117.53-164.7,60.36-191,117-191.31,117.53l-6.31-2.7c1-2.42,27.11-59.91,196.43-121.71l1.19-.45,1.18.45c169.35,61.8,195.43,119.29,196.44,121.71l-6.33,2.69,3.17-1.35Z"></path><polygon class="cls-3" points="826.19 539.93 707.01 480.75 710.04 474.58 829.25 533.76 826.19 539.93"></polygon><rect class="cls-3" x="909.99" y="500.57" width="102.52" height="6.87" transform="translate(-99.94 731.79) rotate(-39.78)"></rect><path class="cls-3" d="M997.18,471.3c0-.24-3.08-25.27-94.2-101.18C811.85,446,808.79,471.06,808.78,471.3l-6.87-.15c0-2.68,2.77-28.48,98.86-108.16l2.21-1.82,2.18,1.82c96.1,79.68,98.89,105.48,98.89,108.16h-3.45Z"></path><polygon class="cls-3" points="881.88 539.47 803.13 473.81 807.54 468.53 886.27 534.19 881.88 539.47"></polygon><path class="cls-3" d="M1332.92,540c-1.54-.72-158.65-72.4-429.94-72.4S474.6,539.24,473,540l-2.91-6.24c1.57-.73,159.88-73,432.86-73s431.29,72.29,432.85,73Z"></path><rect class="cls-3" x="413.32" y="612.85" width="62.18" height="50.65"></rect><rect class="cls-3" x="566.18" y="612.85" width="62.18" height="50.65"></rect><rect class="cls-3" x="719.04" y="612.85" width="62.18" height="50.65"></rect><rect class="cls-3" x="1330.45" y="612.85" width="62.17" height="50.65"></rect><rect class="cls-3" x="1177.58" y="612.85" width="62.2" height="50.65"></rect><rect class="cls-3" x="1024.74" y="612.85" width="62.18" height="50.65"></rect><polygon class="cls-4" points="902.98 612.85 871.89 612.85 871.89 663.5 902.98 663.5 934.07 663.5 934.07 612.85 902.98 612.85"></polygon><path class="cls-4" d="M903,322.38c27.55,0,60.24,38,60.24,38s-16.37,4.56-60.24,4.56-60.26-4.56-60.26-4.56,32.71-38,60.26-38"></path><path class="cls-3" d="M882.82,359.05l-6.44-2.43c3.33-8.83,15-37.69,26.6-37.69s23.28,28.86,26.6,37.69l-6.44,2.43c-5.9-15.72-15.64-33.25-20.16-33.25s-14.26,17.53-20.16,33.25"></path><rect class="cls-3" x="429.08" y="1405.66" width="941.38" height="11.5"></rect><rect class="cls-3" x="312.98" y="1280.72" width="1172.87" height="11.48"></rect><rect class="cls-3" x="402.28" y="1300.05" width="30.4" height="88.53"></rect><path class="cls-5" d="M1798.83,900.26c0-195.38-62-376.82-168.26-524.19L1450,505.59a673.38,673.38,0,0,1,127.1,394.67c0,262.14-149.56,490.1-368,602.5l101.44,197.71c289.91-148.82,488.33-451.29,488.33-800.21"></path><path class="cls-6" d="M899.79,1578c-111.61,0-217-27.13-309.28-75.18L488.23,1700.48c123.26,63.6,263.5,99.28,411.56,99.28s287.45-35.68,410.71-99.28L1209,1502.79A670,670,0,0,1,899.79,1578"></path><path class="cls-7" d="M899.79,222.57c226.31,0,427.82,111.65,550.21,283l180.67-129.51C1467.86,148.11,1201.24,0,899.79,0S331.72,148.11,168.16,376.08L348.73,505.59c123.23-171.37,324-283,551.06-283"></path><path class="cls-8" d="M222.36,900.26A678.77,678.77,0,0,1,348.72,505.59L168.16,376.07A899.42,899.42,0,0,0,0,900.26c0,348.92,198.41,651.39,488.23,800.21l102.28-197.71C372,1390.36,222.36,1162.4,222.36,900.26"></path><path class="cls-9" d="M1628.31,487.73l17,32.59c7.06,15.46,9.3,28.67,5.46,39.57-3.86,11.6-13.15,21.65-27.9,29.43-16.25,7.77-31,10.08-42.66,7q-18.59-4.62-30.15-27.93l-16.36-32.58Zm-77.49,55,10,20.94q5.76,11.65,18.6,18.65c8.55,3.84,20.19,2.3,34.84-5.48,12.51-5.4,20.21-12.35,23.31-20.9,3.84-7.77,3.09-17.08-2.35-28.68l-10.79-21.72Z"></path><polygon class="cls-9" points="1677.17 590.87 1681.77 604.07 1582.55 642.83 1577.86 629.62 1677.17 590.87"></polygon><polygon class="cls-9" points="1694.17 635.08 1698.02 649.05 1629.81 726.56 1712.76 703.33 1716.61 716.47 1614.32 745.21 1609.72 729.65 1677.17 653.7 1594.97 676.2 1591.86 663 1694.17 635.08"></polygon><path class="cls-9" d="M1730.61,797.13l3.11,38.81c0,7,.75,12.38,0,17a25.28,25.28,0,0,1-2.36,11.65,23.11,23.11,0,0,1-7.69,9.31,39.34,39.34,0,0,1-13.26,4.64c-5.34,0-10.79-.77-14.75-3.12-4.59-3.1-7.69-6.17-10.05-10.83-1.49,6.19-3.84,11.6-7.69,15.48-4.7,3.9-10.06,5.42-17.11,6.25a28.49,28.49,0,0,1-21.71-7c-6.19-5.42-10-13.2-10.79-23.28l-4-51.14Zm-93,21,2.34,35.62c.75,6.25,2.25,10.9,6.21,13.95,3.85,3.9,8.44,4.68,14.64,4.68,6.21-.78,10.16-3.07,12.41-7.73,3.09-4.65,4-10.07,3.09-17.07l-2.23-31.81Zm48-3.13L1688,842.9c.74,7.76,2.34,13.16,5.46,17.06,3.08,3.1,7.69,4.65,13.14,4.65,7-.82,10.9-3.12,13.15-7,1.6-4.64,2.35-10.06,2.35-17l-2.35-28.73-82.1,6.23Z"></path><path class="cls-9" d="M1663.92,991.76c-13.9-.77-23.21-5.41-30.16-13.2-6.3-7.7-9.28-17.79-8.55-31,.76-14,5.46-24.86,12.41-31.81s17.85-10.12,31.74-9.3l67.47,3.88-.76,14-68.21-3.87c-9.29-.84-16.34,1.52-21.8,6.17s-8.44,11.65-8.44,21c-.86,9.3,1.49,16.25,6.2,21.68,4.59,4.64,11.65,7.73,21,8.53l67.34,3.89-.74,13.95Z"></path><path class="cls-9" d="M1680.28,1097.21c6.94,0,13.89-2.3,18.49-6.18,4.69-4.65,7.8-10.9,9.3-18.6,2.34-11.65.85-21-6.2-28.71s-16.25-12.39-28.65-15.52c-12.41-2.3-23.2-1.52-32.61,2.35-9.2,4.65-15.4,12.38-17.74,24-2.25,9.29-.75,17.07,3.84,24,4,6.25,10.91,10.91,19.46,12.43l-2.35,14c-13.15-3.89-22.45-10.89-27.9-20.14-6.2-9.37-7.81-20.2-4.71-33.4,3.11-15.48,10.91-26.32,22.45-32.54s25.66-7.73,41.9-4.67c15.51,3.89,27.9,10.89,36.46,21.73s11.65,24,7.7,39.51c-2.25,10.9-7,20.2-14.66,26.4q-11.68,10.51-27.89,9.31Z"></path><path class="cls-9" d="M1606.62,1204.22c-12.4-4.66-21-11.66-24.8-21s-4-20.16.74-32.53c4.6-13.18,11.66-22.49,21-27.15,8.45-4.66,19.36-4.66,32.51,0l63.6,23.27L1695,1160l-63.62-23.26c-9.29-3.13-17.1-3.13-23.3,0s-10.8,9.31-13.89,17.87-3.11,15.45,0,21.67c2.24,6.17,8.55,10.87,17.74,14l63.6,24-4.59,13.2Z"></path><path class="cls-9" d="M1656.22,1259.29l-23.31,44.21c-5.45,8.5-10.79,13.92-17.74,17s-14.76,2.35-22.56-2.3a32.41,32.41,0,0,1-13.14-11.65,25,25,0,0,1-1.5-17.07c-4,4.65-7.81,7-12.51,7a32.18,32.18,0,0,1-13.9-3.11c-5.46-2.29-10.91-4.65-15.5-7-5.45-1.6-10.06-2.37-14-1.6l7-13.95c2.25-.77,7,.75,12.4,3.89,6.2,2.33,10.8,3.89,12.41,4.64,7.79,3.13,13.15,3.89,17,2.35a18.06,18.06,0,0,0,8.56-8.53l16.35-30.22-40.41-21.74,7-12.39ZM1592.61,1274c-3.83,7-5.34,13.19-5.34,17.84.75,5.42,3.84,9.31,10,13.22,5.46,2.29,9.31,3.09,13.9,2.29,4.71-1.56,8.55-4.66,10.91-10.85l17-31-32.49-17Z"></path><polygon class="cls-9" points="1600.41 1357.75 1557.77 1417.49 1548.46 1410.47 1582.55 1362.4 1555.51 1342.27 1522.91 1387.26 1513.6 1380.25 1545.37 1335.27 1515.1 1314.35 1481.01 1363.17 1470.96 1356.22 1514.36 1295.75 1600.41 1357.75"></polygon><path class="cls-9" d="M1462.4,1376.39c10.91-1.53,20.22,1.51,29.51,10.06l-9.29,10.07c-6.22-6.18-13.16-7.71-20.22-6.18-7,.75-13.9,5.41-20.08,11.59A45.13,45.13,0,0,0,1433,1419c-1.51,5.43.74,10.86,5.45,15.5,6.08,5.48,11.52,6.23,17.84,3.13,6.08-3.91,13.89-8.55,23.19-15.5,10.06-7,17.84-10.13,24-10.87a22.7,22.7,0,0,1,17.1,7c7.7,7,10.91,14.72,10,24a45.17,45.17,0,0,1-13.14,24.78c-7.7,8.56-16.25,14-25.56,15.56-8.56,1.54-17.1-1.53-25.55-9.3l9.2-10.09a21.81,21.81,0,0,0,17.1,5.44c6.19-.8,11.64-3.91,16.35-10.08,4.59-4.66,7.71-10.09,8.46-14.78,1.6-5.42-.75-10.09-5.47-14.73-4.59-3.82-8.54-4.65-13.15-2.3-4.58,1.52-12.39,6.94-24,14.72s-20.1,11.66-27,11.66a25,25,0,0,1-18.6-7.75c-7-6.25-10.16-14-8.56-22.5a45.7,45.7,0,0,1,10.06-24.81l-.74-7.76h-.76a6.93,6.93,0,0,1-2.35,4.64,18.58,18.58,0,0,1-8.55,4.65c-3.1.77-5.34-.75-8.55-3.11-3.11-3.07-3.85-6.18-3.11-10.84.87-3.87,3.11-7.78,6.32-11.6a17.35,17.35,0,0,1,4.6-3.88,14.07,14.07,0,0,1,7-3.9l3.07,6.2c-2.34.75-3.07,1.58-4.58,2.36-.76.74-2.37,1.53-3.1,3a25.1,25.1,0,0,0-3.95,5.48,3.64,3.64,0,0,0,.84,4.65c.76.78,2.24.78,3.84.78a15.45,15.45,0,0,0,4.61-3.13c0-.78.74-1.53,1.6-2.3,0,0,.74-1.57,1.51-3.13l4.71,1.56,1.47,10.86c8.56-9.29,17.87-14.77,27.9-16.28"></path><polygon class="cls-9" points="1439.95 1522.94 1466.36 1500.44 1474.06 1508.96 1409.71 1564.79 1402.02 1555.48 1429.16 1532.23 1367.91 1460.12 1378.7 1451.61 1439.95 1522.94"></polygon><polygon class="cls-9" points="1393.47 1575.66 1381.8 1583.41 1319.79 1497.33 1330.72 1488.77 1393.47 1575.66"></polygon><path class="cls-8" d="M301.45,307.07l41.8-38c10.93-9.29,21-13.18,31-11.65a36.14,36.14,0,0,1,24.79,12.37c8.56,9.35,12.43,19.42,11.67,29.5-1.51,10.05-7.8,20.13-17,28.68L378.1,342l22.56,24.85-24.79,22.51Zm59.67,15.51,9.3-9.31c5.45-4.64,8.44-8.55,9.29-11.59a12.71,12.71,0,0,0-3.84-9.36c-3.11-3.08-5.45-4.64-8.56-3.86s-6.19,3.08-10.05,7l-11.64,10.08Z"></path><path class="cls-8" d="M420,224.86c3.08-14.7,11.64-27.12,25.53-35.63,14-9.34,28.67-11.64,42.67-8.58,14.74,3.94,27.14,12.42,35.59,27.14,9.42,14,12.5,28.71,10.16,43.48-3.11,14.69-11.66,26.32-25.66,35.67-13.91,8.48-28.54,11.6-42.54,7.74-14.77-3.14-27.17-12.44-36.45-26.41-8.56-14.71-12.4-29.43-9.3-43.41M476.57,266a21.82,21.82,0,0,0,17.11-2.34,19.36,19.36,0,0,0,8.55-14c1.5-6.17-.87-14.73-7.05-24-5.45-9.29-11.66-13.95-17.77-15.48s-12.5-.76-17.08,2.3-7.72,7.75-9.32,13.95c-.73,6.23,1.6,14,6.95,23.26,6.21,9.29,12.53,14.78,18.61,16.29"></path><polygon class="cls-8" points="529.26 144.24 560.27 130.28 592.88 206.29 637.79 186.86 649.42 212.49 572.67 245.81 529.26 144.24"></polygon><polygon class="cls-8" points="638.52 100.03 671.14 89.95 702.88 196.18 670.38 206.26 638.52 100.03"></polygon><polygon class="cls-8" points="738.59 103.14 707.59 108.56 702.88 80.66 797.47 63.55 802.95 91.48 771.95 96.95 786.57 178.34 753.33 184.59 738.59 103.14"></polygon><polygon class="cls-8" points="833.09 60.47 925.35 58.18 926.08 86.88 868.04 87.64 868.78 101.61 920.74 100.83 921.5 127.21 869.54 127.94 869.54 141.94 928.46 140.35 929.19 169.09 836.19 171.39 833.09 60.47"></polygon><polygon class="cls-8" points="967.24 60.47 1000.49 65.16 995.89 103.14 1026.89 107.78 1032.24 69.03 1066.35 73.68 1050.95 183.81 1017.6 179.16 1022.95 135.69 992.04 131.04 985.85 174.5 951.74 169.84 967.24 60.47"></polygon><polygon class="cls-8" points="1108.25 83.75 1140.86 93.83 1153.99 160.53 1172.61 103.9 1202.85 113.96 1169.49 219.44 1137.65 209.37 1123.75 141.1 1105.14 199.29 1074.14 189.21 1108.25 83.75"></polygon><polygon class="cls-8" points="1238.46 130.28 1269.47 144.24 1222.96 245.06 1191.95 230.27 1238.46 130.28"></polygon><path class="cls-8" d="M1341.51,233.39c2.34-4.65,3.1-9.31,1.6-13.18-.86-3.89-3.95-7.77-7.82-10.08-6.19-3.86-12.39-3.86-17.84-.76-6.08,3.07-11.55,7.76-16.24,15.49-4.61,7-7,13.95-7,20.95-.76,6.2,2.34,11.61,8.55,15.5a17.41,17.41,0,0,0,13.14,3.14,40.13,40.13,0,0,0,12.4-8.55l27.9,17.86c-6.19,10.06-15.48,16.24-28.64,19.36-12.4,3.1-25.56.74-38.8-7.77-14.77-9.31-23.22-20.9-25.56-35.68-3.1-14.73,0-28.7,9.3-43.4s21-24.06,35.61-27.15c14-3.86,28.74-.78,42.64,8.51,13.26,7.79,21,17.08,24.06,27.93s1.6,23.25-4.72,35.68Z"></path><path class="cls-8" d="M1446.16,260.51,1471,283l-43.41,109.36-26.29-23.25,6.94-14.76-26.4-24-13.89,8.47-26.4-22.5ZM1419,331.9l14.77-32.58-31,18.63Z"></path><path class="cls-9" d="M422.38,1503.54c7.68-10.83,16.23-17.08,26.29-18.6s20.22,1.52,31,9.3c11.63,8.52,18.58,17.07,20.94,27.15s-.76,20.12-8.55,31.79L452.51,1609,441,1600.47l39.54-55.83c5.34-7,7.71-14.73,6.11-21.73s-6.11-13.2-13.91-18.61c-6.94-5.42-13.89-7-21-6.19-6.21,1.55-12.39,6.19-17.87,14l-39.42,55.87-11.67-8.56Z"></path><polygon class="cls-9" points="355.67 1536.89 344.86 1526.76 363.47 1426 304.56 1488.02 294.4 1478.71 367.31 1401.93 378.97 1412.05 360.36 1512.86 419.27 1450.81 429.33 1460.12 355.67 1536.89"></polygon><polygon class="cls-9" points="273.55 1454.69 264.26 1443.86 344.12 1374.08 353.41 1384.9 273.55 1454.69"></polygon><polygon class="cls-9" points="304.56 1323.65 313.88 1336.08 250.37 1429.11 240.97 1416.68 298.37 1338.37 205.35 1367.06 196.8 1355.45 304.56 1323.65"></polygon><polygon class="cls-9" points="185.17 1336.83 149.56 1272.47 159.61 1266.3 189.12 1318.22 218.52 1301.92 191.35 1253.84 201.41 1247.67 228.57 1296.5 261.15 1277.89 231.65 1225.93 242.57 1220.51 278.16 1284.89 185.17 1336.83"></polygon><path class="cls-9" d="M137.15,1246.13l-18.6-46.54c-3.85-9.29-3.85-17.07-1.61-24.8,2.37-7,7.82-12.42,15.51-15.56a36.7,36.7,0,0,1,17.84-2.3A24.72,24.72,0,0,1,164.21,1167c-.76-6.17,0-10.88,2.35-14a75.54,75.54,0,0,1,11.66-9.3c5.45-2.34,10.79-4.65,15.48-7,4.6-3.14,8.55-6.2,10.05-10.09l6.21,14.75c-.76,2.34-4.61,4.64-10.79,7.76-6.21,2.31-10.16,4.66-12.4,5.39-7.08,4.66-10.92,7.8-11.66,11.69-1.61,3.87-1.61,7.73.74,12.42l12.4,31.73,42.67-16.25,4.7,13.16Zm29.41-58.19c-3.11-7-6.11-12.37-10.8-15.5-3.86-3.12-9.42-3.12-16.37-.78-4.57,2.33-8.45,5.43-10,9.33-2.23,3.81-1.48,9.31.76,15.48L143.37,1229l34.08-14Z"></path><path class="cls-9" d="M112.36,1072.4c-6.21,3.13-11.66,7-14,12.42s-2.26,11.61-.76,18.62c2.36,7,4.6,11.59,8.55,15.5s9.29,4.64,15.51,3.11a10.73,10.73,0,0,0,9.28-9.33c.77-4.64.77-14.69.77-27.9-.77-14,1.6-24,4.58-29.5a26.81,26.81,0,0,1,16.37-10.82c10.06-3.13,19.35-.78,26.29,6.17s12.51,15.56,14.75,26.4c3.1,12.41,3.1,23.25-1.48,32.56-4,9.31-12.53,15.53-24.05,18.6l-3.11-12.43c7.69-2.29,13.16-6.94,16.24-13.12a45.73,45.73,0,0,0-7.68-41.1c-4.72-3.9-10.17-5.47-17.12-3.9-6.95,2.3-10.9,6.19-11.65,13.19v28.68c.75,11.61-.74,20.12-3.85,25.61-3.84,5.38-8.56,9.28-15.5,10.85-9.29,2.3-17.85.77-24.8-5.47S89,1116.63,86,1105.72c-2.37-10.81-2.37-20.9,1.58-29.45s10.82-14,21.72-16.29Z"></path><polygon class="cls-9" points="74.41 1037.53 72.06 1023.58 177.45 1006.49 179.82 1021.23 74.41 1037.53"></polygon><polygon class="cls-9" points="78.25 966.97 80.48 1002.6 68.95 1003.42 62.75 918.87 74.3 918.1 76.65 953.02 171.27 945.99 172.01 960.77 78.25 966.97"></polygon><path class="cls-9" d="M64.25,867.72l.87-16.31L172.75,815l-.74,16.3L139.4,841.34l-2.24,45,31.74,13.2-.73,14.73Zm63.61-22.51L77.52,859.94l48,21Z"></path><polygon class="cls-9" points="85.97 767.68 79.75 802.61 68.09 800.26 82.09 716.5 94.49 718.8 88.3 753.73 181.3 769.2 178.96 783.16 85.97 767.68"></polygon><polygon class="cls-9" points="88.3 694.78 108.39 625 120.05 628.13 103.04 684.71 135.55 694.78 151.79 641.3 162.72 645.14 147.21 697.91 182.8 707.97 199.17 651.37 210.7 654.5 189.85 725 88.3 694.78"></polygon><path class="cls-9" d="M130.21,571.47l6.08-14.74,114.81,4.66-6.95,14.78-33.45-2.35-18.48,41.11L217,639l-6.32,13.17ZM197.57,573l-52.73-3.87,38.83,37.2Z"></path><path class="cls-8" d="M731.65,1659.41l-24.82-4.66,4.6-22.47a39.86,39.86,0,0,0,23.3-.79c6.94-2.34,10.82-7,12.29-15.49l24.82,5.42-21.61,105.44-31.11-6.21Z"></path><path class="cls-8" d="M817.58,1633a66,66,0,0,1,30.25-4.65c14.77.78,24.82,4.65,31.76,10.86,7.8,6.21,10.91,13.16,10.14,21.71a24.21,24.21,0,0,1-5.45,14.73c-3.1,3.89-7.78,6.22-13.13,7,6.19.75,11.63,3.88,14.63,8.48,4,4.7,5.46,10.14,5.46,17.08-.74,11.64-6.2,19.42-16.25,24.85-10.06,4.66-21.71,6.16-34.11,5.43-14-.77-24.8-3.91-33.35-10.08-9.29-5.42-13.14-14.72-12.4-27.14.74-7.73,3.11-13.21,7.82-16.31,3.84-3.09,9.3-4.65,15.37-5.42-10.79-4.67-16.24-12.38-15.37-24,.74-10.84,5.34-18.6,14.63-22.5m12.51,79.86c3,2.35,7.71,3.12,12.29,3.89a32.25,32.25,0,0,0,12.39-2.29,9.61,9.61,0,0,0,5.46-8.55c.77-4.64-.84-8.53-3.85-10.82s-7-4-12.39-4.66c-4.72,0-9.3.7-12.4,2.3a12.49,12.49,0,0,0-5.45,10.83c-.76,3.9.74,7,4,9.3m3.73-44.16a18.8,18.8,0,0,0,10.93,3.88c4.58,0,8.53,0,12.4-1.52,3.08-1.61,4.58-4.65,4.58-8.56a10.62,10.62,0,0,0-3.08-10.13,25.59,25.59,0,0,0-11.56-3,18.88,18.88,0,0,0-11.66,1.52c-3.1,1.52-4.71,4.65-4.71,9.31-.63,3.89.87,7,3.1,8.54l-3.73,44.16Z"></path><path class="cls-8" d="M943.19,1676.44,917.63,1678,916,1655.55c9.32-.83,17-3.14,22.46-7,6.21-3.89,8.55-10.07,8.55-18.62l24.82-1.52,6.95,107.78L947,1738.49Z"></path><path class="cls-8" d="M1019.1,1628.37c7.79-6.19,17.11-10.07,27.9-12.37,14-3.13,25.53-2.36,34.09,1.51s13.26,10.08,14.76,18.64a21.92,21.92,0,0,1-1.5,15.47c-1.61,4.65-5.44,7.79-10.06,10.12a20.29,20.29,0,0,1,16.25,4.66c4.6,3.07,7.71,8.49,9.32,14.68,2.34,11.64-.87,21-9.32,28-8.54,7.71-18.58,12.37-31,14.71a69.65,69.65,0,0,1-35.72-.76c-9.29-3.13-16.24-10.91-18.61-23.29-1.47-7.74-.73-13.94,3.1-17.83,3.12-3.86,7.82-7,14-9.29-11.63-.77-18.58-7.78-21.79-19.37-1.5-10.13.84-18.69,8.55-24.86m25.53,30.25c3.21.79,7.06,1.56,11.66,0a27.27,27.27,0,0,0,10.9-4.65c2.37-2.35,3.11-5.4,2.37-9.29-.77-4.66-3.11-7.76-6.32-8.53s-7-1.61-11.55,0c-4.69.77-8.43,2.29-10.79,4.65s-3.22,5.43-2.35,10.07a10.76,10.76,0,0,0,6.08,7.75m7.82,43.41a33.86,33.86,0,0,0,12.39,0c4.72-.75,8.56-2.31,11.66-5.4,3.09-2.35,3.85-5.43,3.09-9.3-.84-5.44-3.09-8.56-7.06-10.08-3-1.6-7.69-1.6-12.39-.78-5.35,1.56-9.19,3.08-11.53,5.42-3.11,3.09-4,7-3.11,11.67s3.11,7,7,8.47l-7.82-43.41Z"></path><polygon class="cls-3" points="726.12 1450.71 736.74 1479.2 767.12 1480.49 743.31 1499.4 751.46 1528.69 726.12 1511.88 700.79 1528.69 708.94 1499.4 685.13 1480.49 715.5 1479.2 726.12 1450.71"></polygon><path class="cls-4" d="M903.28,1460.67l-9.54,29.54-31-.06,25.15,18.2-9.65,29.5,25.08-18.29,25.07,18.29-9.65-29.5,25.15-18.2-31,.06-9.53-29.54Zm18.48,17.23,60.16-.12-48.74,35.27,18.7,57.2-48.6-35.47-48.61,35.47,18.7-57.2-48.74-35.27,60.16.12,18.49-57.26,18.48,57.26Zm-18.48-29.24,12.22,37.86,39.78-.08-32.23,23.32,12.36,37.81-32.13-23.44-32.14,23.44,12.36-37.81-32.23-23.32,39.78.08,12.23-37.86Z"></path><polygon class="cls-3" points="1082.04 1449.44 1092.66 1477.93 1123.04 1479.22 1099.23 1498.13 1107.38 1527.42 1082.04 1510.61 1056.71 1527.42 1064.86 1498.13 1041.05 1479.22 1071.42 1477.93 1082.04 1449.44"></polygon><g class="cls-10"><rect class="cls-11" x="410.9" y="1066.38" width="306.43" height="228.01" transform="translate(-286.29 186.22) rotate(-15)"></rect></g><path class="cls-2" d="M637,1265.15h-.38c-1.65-.18-157-16.08-209.81-41.45h0a5,5,0,0,1,1.82-9.49c54.6-3.93,94.89-29.81,107.77-39.12l-66.94-71.15a5.05,5.05,0,0,1,.32-7,5.11,5.11,0,0,1,6.85.06c.29.19,52.69,38,136.48,38,27.66,0,56-5.33,84.24-15.86l.85-.25a5,5,0,0,1,5.66,3.16,4.91,4.91,0,0,1-2.87,6.41c-58,21.65-77.92,29.48-84.76,32.3l25.65,98.17a5,5,0,0,1-1,4.52,5.05,5.05,0,0,1-3.83,1.73m-1.77-4.52v0Zm-198.9-40.24c52.69,21.44,178.29,35.5,198.22,37.63l-26.45-101.23,2.65-1.2c2.52-1.12,11.84-5,46.27-18a232.82,232.82,0,0,1-43.92,4.25c-62.88,0-108-20.36-128.67-32l62.19,66.09-3,2.31c-7.91,6.12-49.05,35.86-107.29,42.15m-6.53-2.88h0m42.07-115.58a2.11,2.11,0,0,0,.35.26l-.35-.26"></path><path class="cls-12" d="M649.51,1115.54c-1-5.23-1.81-11.25-2.5-18H420.32q-.51-8.05-.5-13.35,0-23.93,18.1-29.47,9.3-2.78,39.23-4.78l129.53-8.57q22-1.5,38-3.78.09-63.49,10.32-90.8,13.65-36.53,70.94-46.17-6.17-48.11-34.79-62.79Q667.95,826,612.27,823q-18.88-1-81.11-1-83.64,0-129.23,5-57.43,6.3-71.29,45.1-5.79,16.11-5.8,47.6v28.47h95v-9.07q0-32.73,20.9-41.06,15.12-6,87.92-6,63.23,0,75.07,1.76,27,4,26.95,35.52,0,27.46-16.88,34Q604,967,572,969.56L441,979.63q-59.7,4.53-79.09,15.12-37,20.14-37,72v100.27H686.32q-29.55-13.15-36.81-51.52"></path><path class="cls-2" d="M702.49,1170.48H321.41V1066.79c0-35.78,13.06-61,38.82-75.06,13.5-7.36,39.82-12.43,80.49-15.52l131-10.08c20.89-1.64,34.63-3.69,40.85-6.08,9.88-3.83,14.68-13.9,14.68-30.8,0-19.2-7.86-29.71-24-32.13-7.7-1.14-32.79-1.72-74.56-1.72-47.87,0-77,2-86.64,5.8-12.62,5-18.75,17.4-18.75,37.87v12.51H321.41v-31.9c0-21.3,2-37.71,6-48.78,9.67-27.07,34.62-43,74.14-47.34,30.41-3.35,74-5.06,129.61-5.06,41.31,0,68.65.35,81.3,1,37.95,2.07,64.19,7.06,80.22,15.24C712.73,845,725.07,867,729.32,900.16l.42,3.27-3.26.55c-36.72,6.19-59.71,21-68.3,44-6.64,17.72-10,47.87-10.1,89.6v3l-2.94.43c-10.72,1.53-23.58,2.8-38.23,3.8l-129.52,8.57c-19.63,1.32-32.58,2.89-38.49,4.65-10.52,3.22-15.65,11.79-15.65,26.18q0,4.11.31,9.92H650.12l.31,3.09c.67,6.69,1.49,12.65,2.45,17.73,4.63,24.61,16,40.64,34.84,49Zm-374.21-6.86H673.46c-14.14-10.22-23.31-26.12-27.33-47.45h0c-.84-4.47-1.58-9.57-2.2-15.21H417.1l-.21-3.22q-.51-8.19-.51-13.57c0-17.56,6.91-28.58,20.54-32.75,6.51-2,19.59-3.55,40-4.93l129.52-8.57c13.16-.89,24.84-2,34.78-3.35.22-41,3.76-70.95,10.52-89,9.25-24.75,32.9-40.81,70.31-47.77-4.3-29-15.22-48.12-32.5-56.94-14.95-7.63-41-12.51-77.47-14.49-12.52-.66-39.75-1-80.93-1-55.35,0-98.7,1.68-128.86,5-36.69,4-59.71,18.43-68.43,42.83-3.71,10.32-5.59,25.95-5.59,46.46v25h88.1v-5.64c0-23.28,7.77-38.16,23.08-44.25,10.57-4.23,39.74-6.28,89.18-6.28,42.7,0,67.42.58,75.57,1.79,13.64,2,29.89,10.45,29.89,38.92,0,19.78-6.42,32.3-19.08,37.21-6.94,2.67-20.93,4.79-42.79,6.52l-131,10.08c-39.12,3-65.27,7.91-77.72,14.7-23.71,12.91-35.24,35.49-35.24,69Z"></path><path class="cls-12" d="M1160.76,910.59q62.65,0,93.24,4.88,46.9,7.5,57.61,47.65,6.56,24.76,6.56,76.17t-5.63,76.74q-9.39,42-53.09,49.35-30.23,5.05-95.12,5.06-85.38,0-110.51-4.69-41.28-7.7-49.72-52.53-4.51-24-4.51-71.3,0-59.66,9.57-85.17,12.76-34.15,66.61-43,19.32-3.19,85-3.19m-2.44,59.66q-65.29,0-76.74,15.39-8.43,11.45-8.44,58.35,0,43.71,10.13,53.84,8.82,8.82,36,10.69,18.75,1.32,41.65,1.32,58.53,0,71.66-11.07,9.2-7.69,11.45-28.33.57-5.25.56-31.52,0-28.52-2.25-40.15-4.5-23.07-32.27-26.26-19.87-2.26-51.78-2.26"></path><path class="cls-2" d="M1164.33,1173.87c-56.85,0-94.24-1.6-111.14-4.74-28.92-5.4-46.57-24-52.46-55.29-3-16.13-4.57-40.33-4.57-71.92,0-40,3.3-69.06,9.79-86.38,8.93-23.89,32.23-39.08,69.27-45.15,13.18-2.18,41.17-3.24,85.54-3.24,41.75,0,73.3,1.66,93.78,4.93,32.59,5.21,52.9,22.09,60.38,50.16,4.43,16.73,6.68,42.65,6.68,77s-1.92,60.43-5.7,77.48c-6.57,29.39-25.37,46.88-55.89,52-20.21,3.39-52.41,5.11-95.68,5.11M1160.76,914c-43.39,0-71.79,1.06-84.43,3.15-34.43,5.64-55.95,19.35-63.95,40.78-6.21,16.54-9.35,44.8-9.35,84,0,31.16,1.49,54.94,4.44,70.66,5.39,28.62,20.75,44.91,47,49.79,16.48,3.08,53.45,4.64,109.88,4.64,42.9,0,74.71-1.69,94.55-5,27.88-4.67,44.33-20,50.31-46.71,3.68-16.56,5.55-42.13,5.55-76s-2.17-59.14-6.45-75.29c-6.81-25.56-24.75-40.33-54.83-45.15-20.12-3.2-51.31-4.83-92.7-4.83m.19,199.25c-15.34,0-29.43-.44-41.89-1.32-19.18-1.32-31.68-5.15-38.22-11.69-7.49-7.5-11.13-25.9-11.13-56.27,0-32.32,3-52.07,9.11-60.39,8.4-11.3,34.4-16.78,79.5-16.78,21.29,0,38.84.76,52.17,2.27,20.08,2.31,31.94,12.08,35.25,29,1.56,8.06,2.32,21.4,2.32,40.81,0,17.81-.2,28.23-.59,31.88-1.61,14.83-5.75,24.83-12.65,30.6-9.47,8-33.63,11.87-73.87,11.87m-2.63-139.59c-52.54,0-69.23,7.62-74,14-3.54,4.79-7.76,18.47-7.76,56.3,0,35,5,47.25,9.12,51.41,5.25,5.25,16.62,8.52,33.83,9.7,12.31.87,26.24,1.3,41.42,1.3,47.35,0,63.9-5.57,69.45-10.25s8.85-13.3,10.25-26.09c.36-3.35.54-13.83.54-31.14,0-18.7-.74-32-2.19-39.5-2.7-13.86-12.28-21.55-29.29-23.51-13.06-1.47-30.35-2.23-51.39-2.23"></path><polygon class="cls-13" points="1221.26 1254.11 1221.26 1175.13 1289.68 1174 1279.74 1229.72 1221.26 1254.11"></polygon><path class="cls-2" d="M1217.82,1259.26v-87.51l76-1.25-11,61.66Zm6.87-80.76V1249l52-21.68,8.87-49.77Z"></path><g class="cls-14"><rect class="cls-15" x="1221" y="1124.42" width="286.24" height="174.5"></rect></g><path class="cls-2" d="M1461.37,1302.2a4.94,4.94,0,0,1-3.17-1.14c-.66-.54-65.58-53-160.68-53a269.11,269.11,0,0,0-73.4,10.33,5,5,0,0,1-3-9.52c37-13.21,49.2-19.9,53.18-22.67a5,5,0,0,1-.25-2.65l18.6-98.54a5,5,0,0,1,4.91-4.08c2.06.19,157.44,16.09,210.22,41.47a5,5,0,0,1-1.79,9.5c-54.88,4-95.36,30.11-108,39.28l67.33,82.81a5,5,0,0,1-3.89,8.16m-163.85-61c74.54,0,130.63,31.09,153.62,46.32l-63-77.51,2.78-2.15c7.92-6.11,49.09-35.86,107.3-42.14-53.67-21.83-182.82-36-199.18-37.74l-18.28,96.82a1.85,1.85,0,0,0-.27-1.39,1.87,1.87,0,0,0-1.21-.79l-.34,3.1,3.63.92a3.9,3.9,0,0,1-.34,1.14l-.78,2.34-.92-.2c-3,2.79-10.73,7.47-30.92,15.57a272,272,0,0,1,47.92-4.29m207.23-72.59h0m-205.41-42.33v0"></path><polygon class="cls-13" points="700.63 1123.21 700.63 1207.88 620.95 1186.47 612.07 1158.43 700.63 1123.21"></polygon><path class="cls-2" d="M704.06,1212.36l-85.82-23.07-10.4-32.88,96.22-38.26Zm-80.41-28.72,73.54,19.76v-75.13l-80.88,32.16Z"></path><path class="cls-12" d="M826.84,910.59q62.65,0,93.25,4.88,46.9,7.5,57.6,47.65,6.55,24.76,6.56,76.17T978.62,1116q-9.37,42-53.09,49.35-30.21,5.05-95.12,5.06-85.38,0-110.51-4.69-41.28-7.7-49.72-52.53-4.5-24-4.5-71.3,0-59.66,9.57-85.17,12.75-34.15,66.6-43,19.32-3.19,85-3.19m-2.44,59.66q-65.28,0-76.73,15.39-8.45,11.45-8.45,58.35,0,43.71,10.14,53.84,8.8,8.82,36,10.69,18.76,1.32,41.65,1.32,58.54,0,71.67-11.07,9.19-7.69,11.44-28.33.57-5.25.57-31.52,0-28.52-2.26-40.15-4.5-23.07-32.27-26.26-19.87-2.26-51.78-2.26"></path><path class="cls-2" d="M830.41,1173.87c-56.85,0-94.24-1.6-111.14-4.74-28.92-5.4-46.57-24-52.46-55.29-3-16.13-4.57-40.33-4.57-71.92,0-40,3.3-69.06,9.79-86.38,8.93-23.89,32.23-39.08,69.27-45.15,13.19-2.18,41.17-3.24,85.54-3.24,41.75,0,73.3,1.66,93.79,4.93,32.59,5.21,52.9,22.09,60.38,50.16,4.43,16.73,6.67,42.65,6.67,77s-1.92,60.44-5.7,77.48c-6.57,29.39-25.37,46.88-55.88,52-20.22,3.39-52.41,5.11-95.69,5.11M826.84,914c-43.38,0-71.79,1.06-84.43,3.15C708,922.81,686.47,936.52,678.46,958c-6.2,16.54-9.35,44.8-9.35,84,0,31.16,1.5,54.94,4.45,70.66,5.38,28.62,20.75,44.91,47,49.79C737,1165.45,774,1167,830.41,1167c42.9,0,74.71-1.69,94.55-5,27.88-4.67,44.34-20,50.32-46.71,3.68-16.55,5.54-42.12,5.54-76s-2.17-59.14-6.45-75.29c-6.8-25.56-24.74-40.33-54.83-45.15-20.12-3.2-51.31-4.83-92.7-4.83m.19,199.25c-15.33,0-29.42-.44-41.89-1.32-19.17-1.32-31.67-5.15-38.21-11.69-7.49-7.5-11.14-25.9-11.14-56.27,0-32.32,3-52.07,9.11-60.39,8.41-11.3,34.41-16.78,79.5-16.78,21.3,0,38.85.76,52.17,2.27,20.09,2.31,31.95,12.08,35.26,29,1.55,8.06,2.31,21.41,2.31,40.81,0,17.81-.19,28.23-.58,31.88-1.62,14.83-5.76,24.83-12.66,30.6-9.47,8-33.63,11.87-73.87,11.87M824.4,973.68c-52.54,0-69.23,7.62-74,14-3.54,4.79-7.76,18.47-7.76,56.3,0,35,5,47.25,9.12,51.41,5.25,5.25,16.63,8.52,33.83,9.7,12.31.87,26.25,1.3,41.42,1.3,47.35,0,63.91-5.57,69.46-10.25s8.84-13.3,10.24-26.09c.36-3.35.54-13.83.54-31.14,0-18.7-.73-32-2.18-39.51-2.71-13.85-12.29-21.54-29.3-23.5-13.06-1.47-30.35-2.23-51.39-2.23"></path><g class="cls-16"><rect class="cls-17" x="611.44" y="1088.15" width="698.37" height="207.64"></rect></g><path class="cls-2" d="M647.83,1296.37a5,5,0,0,1-4.82-3.75l-34.74-131.75a5,5,0,0,1,1.55-5A5.11,5.11,0,0,1,615,1155c.48.19,48.75,19,139,19,48.9,0,101.3-5.42,155.72-16.1,191-37.48,397.72-75.45,399.5-75.78l.9-.08a5.1,5.1,0,0,1,3.56,1.45,5,5,0,0,1,1.41,4.43l-25.47,137.93a5,5,0,0,1-6.11,4c-2.41-.52-61.42-13.13-144.3-13.13-60.73,0-118.72,6.67-172.35,19.83-164.37,40.35-316.9,59.69-318.42,59.88a5.34,5.34,0,0,1-.69,0m1.88-5.49h0m-2.05-1.37h0m-31.78-127,33.41,126.74c17.21-2.24,161.32-21.55,316-59.52,54.18-13.3,112.73-20,174-20,76.43,0,132.87,10.66,143.94,12.91l24.64-133.41c-23.32,4.32-217,40-396.72,75.3-54.87,10.77-107.71,16.24-157.07,16.24-78.67,0-125.61-13.93-138.2-18.22M1285.07,1223l.06,0-.06,0"></path><path class="cls-12" d="M1125.08,876.61c0,1.8-.07,3.37-.07,4.68s.08,2.73.2,4.22l8.57,1.46-.12,4.32a25,25,0,0,1-4.09,1.38c-1.72.44-3.52.87-5.39,1.27s-3.74.73-5.58,1-3.46.42-4.88.55l-4.23-.12a17.81,17.81,0,0,1-1.34-5.72q-.18-2.83-.19-6.92l-.63,0a15.24,15.24,0,0,1-2.24,4.7,16.53,16.53,0,0,1-3.91,4,19.29,19.29,0,0,1-5.5,2.76,20.53,20.53,0,0,1-7,.93,22.63,22.63,0,0,1-7.56-1.44,19.4,19.4,0,0,1-6-3.62,16.05,16.05,0,0,1-4-5.48,16.39,16.39,0,0,1-1.3-7.14,17.7,17.7,0,0,1,2.37-9.08,15.53,15.53,0,0,1,6.82-5.69,40,40,0,0,1,11.8-3.09,168.44,168.44,0,0,1,17.42-1.13q1.29-10.61-.45-15.59c-1.15-3.33-3.81-5-8-5.16a20.06,20.06,0,0,0-7.13,1l-6.26,14.66-5.48-.14a29,29,0,0,1-1.84-3.45,43.11,43.11,0,0,1-1.63-4.12,40.56,40.56,0,0,1-1.26-4.43,36.86,36.86,0,0,1-.7-4.34,38,38,0,0,1,12.36-4.73,66.15,66.15,0,0,1,15.87-1.44,36.15,36.15,0,0,1,11.55,1.86,17.54,17.54,0,0,1,6.92,4.38,14.54,14.54,0,0,1,3.38,6.33,28.65,28.65,0,0,1,.79,7.69q-.2,7.41-.68,13.39t-.64,12.28m-28.29,8.75a9.55,9.55,0,0,0,4.52-.86,12.66,12.66,0,0,0,3.23-2.26,9.94,9.94,0,0,0,2.08-2.91,29,29,0,0,0,1.13-2.82l.34-12.35a72.74,72.74,0,0,0-9.62.49,15,15,0,0,0-5.91,1.88,7.42,7.42,0,0,0-3,3.5,15.11,15.11,0,0,0-1,5.23q-.12,4.69,2.05,7.35a7.82,7.82,0,0,0,6.16,2.75"></path><path class="cls-12" d="M1214.28,895.44l-33-.07v-4.69c1.08-.57,2.14-1.09,3.18-1.54s2.26-.92,3.68-1.42l.06-29.1q0-7.8-2.23-12.2t-8-4.42a11.91,11.91,0,0,0-8.17,3,18.68,18.68,0,0,0-5.19,8.23l-.07,34.43a22.7,22.7,0,0,1,3.55,1.18,25,25,0,0,1,3.3,1.8v4.69l-33-.06V890.6a42.18,42.18,0,0,1,8.24-3l.09-45.43-8.23-1,0-4.69a26.28,26.28,0,0,1,4.23-1.41q2.63-.68,5.68-1.29c2-.4,4.11-.75,6.23-1s4-.51,5.8-.67h4.24l0,12.72h.12a24.8,24.8,0,0,1,7.87-8.94,21.17,21.17,0,0,1,12.72-3.74,29.61,29.61,0,0,1,8.72,1.19,14.29,14.29,0,0,1,6.54,4.16,20.07,20.07,0,0,1,4.1,8,47.5,47.5,0,0,1,1.41,12.69l-.07,29.59a21.9,21.9,0,0,1,8.22,3Z"></path><path class="cls-12" d="M1257.73,895.62l-34.4-.12,0-4.69a26.88,26.88,0,0,1,3.86-1.66c1.33-.45,2.79-.88,4.37-1.29l.15-45.44-8.22-1,0-4.7a42.13,42.13,0,0,1,4.67-1.46c1.87-.49,3.85-.91,5.93-1.28s4.11-.69,6.11-1,3.73-.5,5.23-.66l4.24,0-.18,55.58c1.65.42,3.15.85,4.48,1.3a23.42,23.42,0,0,1,3.73,1.69ZM1230,813.5a8.36,8.36,0,0,1,3-6.78,13.06,13.06,0,0,1,15.27,0,8.35,8.35,0,0,1,2.93,6.8,8.25,8.25,0,0,1-3,6.66,13,13,0,0,1-15.28-.05,8.22,8.22,0,0,1-2.93-6.68"></path><path class="cls-18" d="M725.61,1199.73l-1.18,18.32-1.26.22a23.61,23.61,0,0,0-2.66-6.33,13.78,13.78,0,0,0-5.24-4.77,9.66,9.66,0,0,0-6.09-.92,7.17,7.17,0,0,0-4.8,3.2,7.25,7.25,0,0,0-1.32,5.53,11.29,11.29,0,0,0,2.54,5.27q2,2.46,8.77,6.92a30.34,30.34,0,0,1,7.55,6.44,15.46,15.46,0,0,1,2.81,6.58,14.37,14.37,0,0,1-.85,8.07,14.66,14.66,0,0,1-5.45,6.58,23,23,0,0,1-9.21,3.63,45.81,45.81,0,0,1-8.43.51,45.05,45.05,0,0,0-6.79.2,6.58,6.58,0,0,0-2.26.82,11.85,11.85,0,0,0-2.28,2l-1.48.27,1.09-20.55,1.45-.25a29.16,29.16,0,0,0,3.67,8.45,13.24,13.24,0,0,0,5.59,4.86,11.85,11.85,0,0,0,7.16.83,8.75,8.75,0,0,0,5.86-3.62,8.06,8.06,0,0,0,1.49-6.31,11.51,11.51,0,0,0-2.41-5.24c-1.27-1.58-3.89-3.75-7.89-6.5a36,36,0,0,1-8.64-7.74,14.28,14.28,0,0,1-2.53-6,13.29,13.29,0,0,1,2.76-10.76q3.78-5,11.11-6.32a35.42,35.42,0,0,1,9-.07,19.62,19.62,0,0,0,4.62.08,4.16,4.16,0,0,0,1.9-.83,8.1,8.1,0,0,0,1.72-2.26ZM703,1279l-.84-1q5.79-4.18,5.41-6.28c-.11-.66-.78-1.33-2-2-1.71-.9-2.66-1.94-2.87-3.11a3.63,3.63,0,0,1,.94-3.18,5.37,5.37,0,0,1,3.13-1.76,4.57,4.57,0,0,1,3.82.86,4.8,4.8,0,0,1,1.86,2.93,9.4,9.4,0,0,1-1.88,7.1A21.19,21.19,0,0,1,703,1279Z"></path><path class="cls-18" d="M760.61,1238.59l1.33.82a28.54,28.54,0,0,1-6.13,7.79,19.92,19.92,0,0,1-9.39,4.51,12.55,12.55,0,0,1-6.34-.38,9.34,9.34,0,0,1-4.65-3.42,12.83,12.83,0,0,1-2.23-5.21,25.35,25.35,0,0,1,1.2-12.91,26.83,26.83,0,0,1,7.25-11.18,20.77,20.77,0,0,1,10.32-5.48c2.87-.52,5.15-.26,6.82.75a6.11,6.11,0,0,1,3,4.34,6.28,6.28,0,0,1-.86,4.64,5,5,0,0,1-3.34,2.45,4,4,0,0,1-3.12-.63,3.66,3.66,0,0,1-1.65-2.5,4.46,4.46,0,0,1,1.42-4c.81-.88,1.17-1.59,1.08-2.12a1.34,1.34,0,0,0-.77-1,3.16,3.16,0,0,0-2.1-.26,9,9,0,0,0-5.56,3.67,22.62,22.62,0,0,0-4.17,9.72,29,29,0,0,0-.2,10.34,8.69,8.69,0,0,0,3.09,5.61,6.39,6.39,0,0,0,5.21,1.38,13.4,13.4,0,0,0,5.06-2.21A18.44,18.44,0,0,0,760.61,1238.59Z"></path><path class="cls-18" d="M786.94,1206.88a12.24,12.24,0,0,1,5.92.38,9.52,9.52,0,0,1,4.69,3.16,11.43,11.43,0,0,1,2.34,5.25,25.64,25.64,0,0,1-1.24,13,27.12,27.12,0,0,1-7.36,11.37,21.46,21.46,0,0,1-10.73,5.6q-5.19.93-8.58-1.66a10.89,10.89,0,0,1-4.19-7,24,24,0,0,1,.34-10.32,30.06,30.06,0,0,1,3.93-9,27.73,27.73,0,0,1,6.5-7A19.38,19.38,0,0,1,786.94,1206.88Zm-1.2,2.3a5,5,0,0,0-3.14,1.78q-2.25,2.88-4,12.31a45.87,45.87,0,0,0-.51,16.52,4.09,4.09,0,0,0,1.58,2.71,3.39,3.39,0,0,0,2.72.7,4.16,4.16,0,0,0,2.47-1.39c1-1.11,2-3.41,3-6.89a55.72,55.72,0,0,0,2.12-11.28,41.78,41.78,0,0,0-.33-10.87,4.65,4.65,0,0,0-1.5-2.9A2.93,2.93,0,0,0,785.74,1209.18Z"></path><path class="cls-18" d="M837.84,1198.34,835,1225l-.21,3.23a5.93,5.93,0,0,0,0,.86,1.11,1.11,0,0,0,.47.74.9.9,0,0,0,.73.22,4.08,4.08,0,0,0,2-1.61,31.13,31.13,0,0,0,2.12-4l1.46.45a22.22,22.22,0,0,1-4.49,8.26,11.09,11.09,0,0,1-6.21,3.45,4.63,4.63,0,0,1-3.52-.53,3.86,3.86,0,0,1-1.65-2.64,23.93,23.93,0,0,1,.23-5.75l.36-3.25q-3.06,8.38-6.58,12.27a8.21,8.21,0,0,1-4.71,2.74,5.46,5.46,0,0,1-5.59-2,13.65,13.65,0,0,1-2.72-6.22c-.64-3.59-.28-7.89,1.07-12.93a31.25,31.25,0,0,1,6.62-12.73q3.76-4.29,7.61-5a4.78,4.78,0,0,1,3.66.63,8.47,8.47,0,0,1,2.71,4.17l.54-4.93Zm-10.91,9.42a8.22,8.22,0,0,0-1.75-4.29,2.23,2.23,0,0,0-2-.62,3.8,3.8,0,0,0-2.23,1.58q-2.14,2.82-3.8,10.58a34.64,34.64,0,0,0-.73,13,5.05,5.05,0,0,0,1.19,2.8,1.87,1.87,0,0,0,1.63.63,4.9,4.9,0,0,0,3.12-2.6,31.41,31.41,0,0,0,3.3-7.71Q827.93,1213.34,826.93,1207.76Z"></path><path class="cls-18" d="M861,1175.55l-5,45.2a25.54,25.54,0,0,0-.26,5,1.19,1.19,0,0,0,.48.78,1,1,0,0,0,.76.22,2,2,0,0,0,1.2-.77,21.52,21.52,0,0,0,3.19-5.76l1.61.42q-2.6,6.45-5.66,9.55a8.9,8.9,0,0,1-4.81,2.59,5.8,5.8,0,0,1-4.25-.64,4.32,4.32,0,0,1-2.07-3,19.23,19.23,0,0,1,.11-4.71l4-37a18.29,18.29,0,0,0,.16-4,1.69,1.69,0,0,0-1.06-1.3,5.25,5.25,0,0,0-3.36-.07l.16-1.52,12.45-4.55Z"></path><path class="cls-18" d="M898.6,1187.48l-2.87,26.69-.21,3.22a4.76,4.76,0,0,0,0,.86,1.15,1.15,0,0,0,.46.75,1,1,0,0,0,.73.22,4.09,4.09,0,0,0,2-1.62,30.37,30.37,0,0,0,2.12-4l1.45.45a22.13,22.13,0,0,1-4.48,8.26,11.16,11.16,0,0,1-6.21,3.46,4.62,4.62,0,0,1-3.52-.54,3.88,3.88,0,0,1-1.66-2.63,24.1,24.1,0,0,1,.24-5.75l.36-3.26q-3.07,8.39-6.58,12.28a8.25,8.25,0,0,1-4.71,2.73,5.43,5.43,0,0,1-5.59-2,13.68,13.68,0,0,1-2.72-6.23q-1-5.37,1.07-12.92a31.29,31.29,0,0,1,6.62-12.74q3.76-4.29,7.61-5a4.87,4.87,0,0,1,3.66.63q1.51,1,2.71,4.18l.54-4.94Zm-10.91,9.43a8.14,8.14,0,0,0-1.75-4.29,2.2,2.2,0,0,0-2-.62,3.8,3.8,0,0,0-2.24,1.58q-2.13,2.82-3.79,10.58a34.64,34.64,0,0,0-.73,13,5,5,0,0,0,1.19,2.79,1.91,1.91,0,0,0,1.63.64,4.94,4.94,0,0,0,3.12-2.61,31.41,31.41,0,0,0,3.3-7.71Q888.69,1202.47,887.69,1196.91Zm-14-23.64,1.23-.22a7.56,7.56,0,0,0,3.33,4.32,8.45,8.45,0,0,0,5.61.58q6.33-1.14,8.68-8l1.48-.27q-.69,7.38-3.54,11.11a10.83,10.83,0,0,1-6.75,4.43,8.35,8.35,0,0,1-6.54-1.35,9,9,0,0,1-3.56-6A14.56,14.56,0,0,1,873.74,1173.27Z"></path><path class="cls-18" d="M959.14,1158l-4.77,44.9a28.42,28.42,0,0,0-.32,5,1,1,0,0,0,.44.67.91.91,0,0,0,.7.19,2.59,2.59,0,0,0,1.37-.92,17.85,17.85,0,0,0,2.71-4.65l1.51.48q-3.71,10.33-10.15,11.49a4.87,4.87,0,0,1-3.74-.57,4.13,4.13,0,0,1-1.79-2.85,19.24,19.24,0,0,1,.08-5.28l.45-4.1q-3.27,9.28-6.28,12.69a8.69,8.69,0,0,1-4.82,3,6.21,6.21,0,0,1-5.24-1.46q-2.37-2-3.17-6.44a27.23,27.23,0,0,1,.51-11.67,37.11,37.11,0,0,1,4.17-10.27,24.07,24.07,0,0,1,5.35-6.4,12.75,12.75,0,0,1,5.61-2.64,5.66,5.66,0,0,1,2.76.14,10.58,10.58,0,0,1,3.06,1.81l1.12-10a21.08,21.08,0,0,0,.13-5.22,2.11,2.11,0,0,0-1-1.44,2.6,2.6,0,0,0-2-.32,9.35,9.35,0,0,0-1.31.35l.11-1.55,12.13-4.57Zm-12.46,27.18a5.23,5.23,0,0,0-1.52-3.23,2.82,2.82,0,0,0-2.33-.69,4.19,4.19,0,0,0-2.4,1.73q-2.28,2.93-3.91,10.83t-.74,13a4.63,4.63,0,0,0,1.13,2.59,1.86,1.86,0,0,0,1.61.62,4.09,4.09,0,0,0,2.45-1.7q2.71-3.48,4.6-11.11T946.68,1185.19Z"></path><path class="cls-18" d="M974.7,1195.06a30.3,30.3,0,0,0,.38,4.14,6.43,6.43,0,0,0,2.48,4.29,6,6,0,0,0,4.75.92,12.43,12.43,0,0,0,5.13-2.26,28.24,28.24,0,0,0,5.42-5.65l1.33.83a30.76,30.76,0,0,1-7.2,9.07,19.23,19.23,0,0,1-8.79,3.9q-6.36,1.14-9.35-1.48a11.1,11.1,0,0,1-3.7-6.62,25,25,0,0,1,1.4-13.16,28.51,28.51,0,0,1,8.13-11.8,24.54,24.54,0,0,1,11.93-6,7,7,0,0,1,5.12.66,5.14,5.14,0,0,1,2.33,3.56,10.42,10.42,0,0,1-.64,5.7,18.49,18.49,0,0,1-4.54,6.77,26.68,26.68,0,0,1-6.91,4.68A43,43,0,0,1,974.7,1195.06Zm0-2a19.62,19.62,0,0,0,5-2.29,12.17,12.17,0,0,0,3.13-3.39A17.36,17.36,0,0,0,985,1182a13.39,13.39,0,0,0,.33-5.62,2.31,2.31,0,0,0-.89-1.58,2,2,0,0,0-1.61-.34q-1.83.33-3.67,3.29Q975.8,1183.19,974.68,1193Z"></path><path class="cls-18" d="M1032.84,1163l-3,28.51a15.28,15.28,0,0,0-.1,3.17,1.14,1.14,0,0,0,.48.72,1,1,0,0,0,.79.23,2,2,0,0,0,1.2-.8,23.88,23.88,0,0,0,3.2-5.85l1.44.53q-4,11.07-10.46,12.22a5.56,5.56,0,0,1-4.19-.68,4.71,4.71,0,0,1-2.1-3.27,13,13,0,0,1,0-3.7l2-19.18a16.24,16.24,0,0,0,.06-4.1,2,2,0,0,0-1-1.36,2.89,2.89,0,0,0-2.1-.29c-.38.07-.84.16-1.37.28l.22-1.61,12.56-4.41Zm-5.5-17.12a5.41,5.41,0,0,1,4.28.93,5.71,5.71,0,0,1,1.39,7.93,5.68,5.68,0,0,1-10.24-2.26,5.54,5.54,0,0,1,.91-4.26A5.44,5.44,0,0,1,1027.34,1145.83Z"></path><path class="cls-18" d="M1055.49,1158.9l-1.8,17.21a96.58,96.58,0,0,1,5.38-11.08,25.85,25.85,0,0,1,5.06-6.26,10.08,10.08,0,0,1,4.48-2.21,4.61,4.61,0,0,1,3.66.86,5.39,5.39,0,0,1,2.1,3.58,19.31,19.31,0,0,1,0,5.35l-2,17.16a13.63,13.63,0,0,0-.11,2.89,1,1,0,0,0,.41.64.86.86,0,0,0,.65.2,1.44,1.44,0,0,0,.74-.45,15.07,15.07,0,0,0,2.15-3.61c.17-.4.44-1,.82-1.8l1.61.62q-3.93,10.43-10.1,11.52a5.34,5.34,0,0,1-3.92-.56,4,4,0,0,1-1.88-2.81,19.42,19.42,0,0,1,.06-4.93l1.86-17.14a9.13,9.13,0,0,0,.07-2.45,1,1,0,0,0-.47-.68,1.11,1.11,0,0,0-.86-.18c-1,.17-2,1-3.16,2.61q-4.37,6-7.5,16.81l-1.11,11.88-9.72,1.74,2.76-25.76a22.75,22.75,0,0,0,.11-5.33,2,2,0,0,0-.5-1,2.13,2.13,0,0,0-1.12-.51,9.16,9.16,0,0,0-2.64.22l.16-1.53,12.46-4.54Z"></path><path class="cls-18" d="M1108.69,1151.8l10.15-1.82-.47,4.42-5.26.94a9.09,9.09,0,0,1,2,4.05,11.84,11.84,0,0,1-.74,6.75,13.31,13.31,0,0,1-4.73,5.68,19.14,19.14,0,0,1-7.87,3.22,21.52,21.52,0,0,1-2.64.29c-1,.06-2,.09-3.2.08a12.08,12.08,0,0,0-2.8,2.63,1.76,1.76,0,0,0-.26,1.19,1.59,1.59,0,0,0,.79,1.08,6.62,6.62,0,0,0,3.17.77,74.2,74.2,0,0,1,10.74.87,12.61,12.61,0,0,1,5.78,2.71,8.59,8.59,0,0,1,2.69,5q.84,4.77-2.9,9.12t-12.94,6q-9.27,1.65-14.2-.61c-2.38-1.1-3.74-2.67-4.11-4.7a6,6,0,0,1,1.31-4.68q1.72-2.36,8.28-5.1a10.29,10.29,0,0,1-3.55-1.81,4.92,4.92,0,0,1-1.64-2.81,6.11,6.11,0,0,1,1.23-4.87,22.14,22.14,0,0,1,6.16-5.07,11.89,11.89,0,0,1-6.08-2.87,9.35,9.35,0,0,1-2.64-5.18,11.38,11.38,0,0,1,.88-6.67,14.44,14.44,0,0,1,5-5.92,20.82,20.82,0,0,1,8.65-3.47,21.18,21.18,0,0,1,5.89-.31A10.71,10.71,0,0,1,1108.69,1151.8Zm-14.94,38.4a12.06,12.06,0,0,0-4.39,3.94,5.63,5.63,0,0,0-.68,3.78,5.73,5.73,0,0,0,3.41,4q3,1.54,8.69.52,4.77-.85,6.59-3a5.19,5.19,0,0,0,1.41-4.45,3.94,3.94,0,0,0-2.56-3c-1.46-.63-4.14-1.08-8-1.36C1096.39,1190.52,1094.91,1190.36,1093.75,1190.2Zm6.89-37.44a4.57,4.57,0,0,0-3,1.79,15.4,15.4,0,0,0-2.48,6.9,25.32,25.32,0,0,0-.06,8.59,4,4,0,0,0,1.61,2.76,3.72,3.72,0,0,0,2.89.61,3.92,3.92,0,0,0,2.51-1.55,17.38,17.38,0,0,0,2.58-7.37,26.16,26.16,0,0,0,.12-8.62,3.75,3.75,0,0,0-1.52-2.53A3.52,3.52,0,0,0,1100.64,1152.76Z"></path><path class="cls-18" d="M1137,1144.33l-3,28.52a15.18,15.18,0,0,0-.1,3.16,1.11,1.11,0,0,0,.48.72,1,1,0,0,0,.79.24,2.08,2.08,0,0,0,1.2-.8,24.08,24.08,0,0,0,3.2-5.85l1.44.53q-4,11.06-10.45,12.22a5.63,5.63,0,0,1-4.2-.69,4.69,4.69,0,0,1-2.1-3.26,13.05,13.05,0,0,1,0-3.71l2-19.17a15.84,15.84,0,0,0,.06-4.11,2,2,0,0,0-1-1.36,2.94,2.94,0,0,0-2.1-.29c-.38.07-.84.16-1.37.28l.22-1.61,12.56-4.41Zm-5.5-17.12a5.66,5.66,0,1,1-3.66,2.35A5.49,5.49,0,0,1,1131.54,1127.21Z"></path><path class="cls-18" d="M1159.69,1140.28l-1.8,17.21a96.58,96.58,0,0,1,5.38-11.08,25.56,25.56,0,0,1,5.06-6.25,10,10,0,0,1,4.48-2.22,4.6,4.6,0,0,1,3.66.86,5.44,5.44,0,0,1,2.1,3.58,19.32,19.32,0,0,1,0,5.35l-2,17.16a13.28,13.28,0,0,0-.12,2.9,1,1,0,0,0,.41.63.82.82,0,0,0,.65.2,1.32,1.32,0,0,0,.74-.45,14.88,14.88,0,0,0,2.15-3.61c.17-.4.44-1,.82-1.8l1.61.62q-3.93,10.42-10.1,11.53a5.39,5.39,0,0,1-3.92-.56,4,4,0,0,1-1.88-2.82,19.42,19.42,0,0,1,.06-4.93l1.86-17.13a9.21,9.21,0,0,0,.07-2.46,1,1,0,0,0-.47-.68,1.16,1.16,0,0,0-.86-.18c-1,.17-2,1-3.16,2.61q-4.37,6-7.5,16.81l-1.11,11.88-9.72,1.74,2.76-25.76a22.75,22.75,0,0,0,.11-5.33,1.89,1.89,0,0,0-.5-1,2,2,0,0,0-1.12-.51,8.69,8.69,0,0,0-2.64.21l.16-1.52,12.46-4.55Z"></path><path class="cls-18" d="M1198.24,1155.12a32.35,32.35,0,0,0,.38,4.15,6.47,6.47,0,0,0,2.48,4.28,6,6,0,0,0,4.75.92,12.54,12.54,0,0,0,5.13-2.25,28.06,28.06,0,0,0,5.42-5.66l1.33.83a30.91,30.91,0,0,1-7.19,9.07,19.32,19.32,0,0,1-8.79,3.9q-6.37,1.14-9.36-1.48a11.15,11.15,0,0,1-3.7-6.62,25.05,25.05,0,0,1,1.41-13.16,28.39,28.39,0,0,1,8.12-11.8,24.54,24.54,0,0,1,11.93-6,7,7,0,0,1,5.12.66,5.14,5.14,0,0,1,2.33,3.56,10.4,10.4,0,0,1-.64,5.7,18.51,18.51,0,0,1-4.53,6.78,27,27,0,0,1-6.92,4.68A43.14,43.14,0,0,1,1198.24,1155.12Zm0-2a19.91,19.91,0,0,0,5-2.28,12.21,12.21,0,0,0,3.13-3.4,17.4,17.4,0,0,0,2.22-5.31,13.45,13.45,0,0,0,.34-5.63,2.37,2.37,0,0,0-.89-1.57,2.08,2.08,0,0,0-1.62-.35q-1.83.33-3.66,3.29Q1199.34,1143.25,1198.23,1153.08Z"></path><path class="cls-18" d="M1235.44,1126.75l-1.93,22.47q4.29-17,7.23-21.21a6.29,6.29,0,0,1,4-2.93,3.31,3.31,0,0,1,2.81.7,5.06,5.06,0,0,1,1.58,3.12,10.58,10.58,0,0,1-.69,6.54,3.25,3.25,0,0,1-2.26,2.06,2.49,2.49,0,0,1-2.54-1,7.56,7.56,0,0,0-1.37-1.47,1,1,0,0,0-.69-.13,1.63,1.63,0,0,0-.76.37,8.48,8.48,0,0,0-1.8,2.62,36.66,36.66,0,0,0-2.27,6.53q-1.24,4.51-1.84,7.59a111.55,111.55,0,0,0-1.13,11.52l-9.23,1.64,1.78-26.41a20.78,20.78,0,0,0,0-3.86,3.19,3.19,0,0,0-.65-1.54,2.18,2.18,0,0,0-1.14-.65,8.07,8.07,0,0,0-2.66.19l.14-1.16,11.07-4.58Z"></path><path class="cls-18" d="M1267.25,1121.07l-3,28.51a15.56,15.56,0,0,0-.11,3.17,1.12,1.12,0,0,0,.49.72,1,1,0,0,0,.78.23,2,2,0,0,0,1.2-.8,23.84,23.84,0,0,0,3.21-5.85l1.43.53q-4,11.07-10.45,12.22a5.59,5.59,0,0,1-4.2-.68,4.77,4.77,0,0,1-2.1-3.27,13.36,13.36,0,0,1,0-3.7l2-19.18a15.77,15.77,0,0,0,.06-4.1,2,2,0,0,0-1-1.36,2.89,2.89,0,0,0-2.1-.29c-.38.07-.84.16-1.37.28l.23-1.61,12.55-4.41Zm-5.5-17.12a5.44,5.44,0,0,1,4.28.92,5.59,5.59,0,0,1,2.33,3.68,5.68,5.68,0,1,1-11.18,2,5.59,5.59,0,0,1,.91-4.26A5.44,5.44,0,0,1,1261.75,1104Z"></path><path class="cls-12" d="M344,752.72q5.53-6.74,13.3-6.73a12.55,12.55,0,0,1,6.89,1.91,26.15,26.15,0,0,1,4.7,4.12v-18q0-3.72-1.44-4.62t-5.94-1.08V726h21.13v56.48c0,2,.38,3.43,1.15,4.21s2.27,1.25,4.5,1.45v2.25c-5.49.54-9,1-10.63,1.22s-4.41,1-8.44,2.08v-6.46a26.69,26.69,0,0,1-5.07,4.26,14.91,14.91,0,0,1-7.86,2.2q-7.18,0-12.51-6.08t-5.31-16.53Q338.44,759.45,344,752.72Zm22.37,32.6q2.52-2.82,2.52-4V757.48c0-.79-.72-2-2.16-3.54a7.41,7.41,0,0,0-5.72-2.35c-3.49,0-5.87,2.41-7.11,7.24a45.52,45.52,0,0,0-1,11,50.45,50.45,0,0,0,1,11.4q1.77,6.94,6.82,6.95A7.53,7.53,0,0,0,366.34,785.32Z"></path><path class="cls-12" d="M398.69,752.24A19.4,19.4,0,0,1,413.2,746a17.52,17.52,0,0,1,9.11,2.53,17.09,17.09,0,0,1,6.58,7.05,26.78,26.78,0,0,1,2.39,8.81,31.14,31.14,0,0,1,.34,3.88H406.56a36,36,0,0,0,1.92,10.21q2.88,8.1,10.13,8.09a11.14,11.14,0,0,0,6.53-2.15,29.94,29.94,0,0,0,4.66-4.36l2.25,1.39q-4.56,7.47-10.55,10.39a20.3,20.3,0,0,1-8.92,1.87q-7.24,0-13.58-5.7t-6.33-18.2Q392.67,758.49,398.69,752.24Zm20.86,12.38q-.1-8.67-1.35-12.12a4.87,4.87,0,0,0-5-3.45c-2.57,0-4.32,1.33-5.27,4s-1.48,6.51-1.61,11.59Z"></path><path class="cls-12" d="M460.37,810.18c2.11-.22,3.54-.71,4.31-1.46s1.15-2.16,1.15-4.24v-49.3c0-2.06-.36-3.45-1.08-4.18s-2.1-1.23-4.14-1.52v-2.34h18.73v6.46a19.12,19.12,0,0,1,3.93-4.93,13.62,13.62,0,0,1,8.81-2.78,16.35,16.35,0,0,1,12.82,5.8Q510,757.48,510,769q0,10.68-5.48,17.7t-13.35,7a13.7,13.7,0,0,1-7.61-2.34,20.47,20.47,0,0,1-4-3.55v8.29q0,6.61.09,7.42c.23,2.59.89,4.37,2,5.32s2.95,1.52,5.54,1.68v2H460.37Zm34.11-29a61.11,61.11,0,0,0-.53-24.6q-1.53-5-6.23-5a7.44,7.44,0,0,0-5.65,2.78q-2.49,2.77-2.49,4v23.86q0,1.44,2.37,3.72a7.54,7.54,0,0,0,5.34,2.27Q492.61,788.24,494.48,781.2Z"></path><path class="cls-12" d="M521.34,752.24A19.4,19.4,0,0,1,535.85,746a17.52,17.52,0,0,1,9.11,2.53,17,17,0,0,1,6.57,7.05,27,27,0,0,1,2.4,8.81,31.14,31.14,0,0,1,.34,3.88H529.21a35.34,35.34,0,0,0,1.92,10.21q2.88,8.1,10.13,8.09a11.16,11.16,0,0,0,6.53-2.15,29.94,29.94,0,0,0,4.66-4.36l2.25,1.39q-4.56,7.47-10.55,10.39a20.31,20.31,0,0,1-8.93,1.87q-7.25,0-13.57-5.7t-6.33-18.2Q515.32,758.49,521.34,752.24Zm20.85,12.38q-.09-8.67-1.34-12.12a4.87,4.87,0,0,0-5-3.45c-2.57,0-4.32,1.33-5.27,4s-1.48,6.51-1.61,11.59Z"></path><path class="cls-12" d="M559.2,777.46h2.74q1.42,7,5.36,9.94a13.38,13.38,0,0,0,8.05,2.9c2.52,0,4.38-.57,5.56-1.7a5.93,5.93,0,0,0,1.77-4.48,6,6,0,0,0-1.92-4.5,13.92,13.92,0,0,0-3.4-2.16l-7.28-3.54q-5.75-2.83-8.24-6.14a12.44,12.44,0,0,1-2.54-7.8,13.69,13.69,0,0,1,4-9.85q4-4.14,11.11-4.14a23.27,23.27,0,0,1,6.61,1,23.53,23.53,0,0,0,4.36,1,2.32,2.32,0,0,0,1.7-.51,3.67,3.67,0,0,0,.84-1.41h2.16v14.18h-2.49a17.24,17.24,0,0,0-4.55-8,10.37,10.37,0,0,0-7.38-3,6.16,6.16,0,0,0-4.87,1.82,5.86,5.86,0,0,0-1.6,3.93,5.4,5.4,0,0,0,1.44,3.45,15.09,15.09,0,0,0,5.27,3.64l5.36,2.59a27.68,27.68,0,0,1,7.28,4.65,12.8,12.8,0,0,1,3.84,9.43,15.53,15.53,0,0,1-4,10.18q-3.95,4.72-11.85,4.72a19.85,19.85,0,0,1-4-.4,43.18,43.18,0,0,1-4.91-1.42l-1.67-.57c-.61-.23-1-.35-1.13-.39a2.81,2.81,0,0,0-.55,0,1.86,1.86,0,0,0-1.41.64,9.79,9.79,0,0,0-1.37,2.18H559.2Z"></path><path class="cls-12" d="M596.48,751.45v-2.73c.86-.8,1.93-1.75,3.21-2.83q2.53-2.35,4.79-4.84a81.37,81.37,0,0,0,8.1-10.49h2.49v16.58h9.34v4.31h-9.34V781a8.38,8.38,0,0,0,.62,3.45,3.25,3.25,0,0,0,3.16,2.15,4.23,4.23,0,0,0,3.21-1.36,17.31,17.31,0,0,0,2.59-3.76l2.35,1.15a22.34,22.34,0,0,1-4.12,6.56,13.63,13.63,0,0,1-10.29,4.46,13.19,13.19,0,0,1-6-1.3q-5-2.49-5-9V751.45Z"></path><path class="cls-12" d="M635.75,752.24A19.4,19.4,0,0,1,650.26,746a17.52,17.52,0,0,1,9.11,2.53,17,17,0,0,1,6.57,7.05,26.77,26.77,0,0,1,2.4,8.81,31.14,31.14,0,0,1,.34,3.88H643.62a35.34,35.34,0,0,0,1.92,10.21q2.88,8.1,10.13,8.09a11.16,11.16,0,0,0,6.53-2.15,29.94,29.94,0,0,0,4.66-4.36l2.25,1.39q-4.56,7.47-10.55,10.39a20.31,20.31,0,0,1-8.93,1.87q-7.25,0-13.57-5.7t-6.33-18.2Q629.73,758.49,635.75,752.24Zm20.85,12.38q-.09-8.67-1.34-12.12a4.87,4.87,0,0,0-5-3.45c-2.57,0-4.32,1.33-5.27,4s-1.48,6.51-1.61,11.59Z"></path></g></g></svg>